<svg xmlns="http://www.w3.org/2000/svg" viewBox="0 0 24 24" width="36" height="36">
    <path fill="none" stroke="white" stroke-width="2" d="M22.46 6.1c-.84.37-1.74.62-2.68.73.96-.57 1.7-1.48 2.05-2.56-.9.53-1.9.92-2.96 1.13-.85-.9-2.06-1.46-3.4-1.46-2.57 0-4.66 2.09-4.66 4.66 0 .37.04.73.13 1.08-3.87-.2-7.3-2.05-9.6-4.87-.4.7-.63 1.52-.63 2.38 0 1.62.82 3.04 2.06 3.87-.76 0-1.47-.23-2.1-.57v.06c0 2.27 1.62 4.16 3.77 4.6-.4.1-.83.16-1.27.16-.31 0-.62-.03-.92-.08.62 1.93 2.42 3.34 4.55 3.37-1.67 1.3-3.77 2.08-6.05 2.08-.39 0-.78-.02-1.17-.07 2.15 1.38 4.71 2.18 7.46 2.18 8.95 0 13.87-7.41 13.87-13.87 0-.21 0-.42-.02-.63.95-.69 1.78-1.55 2.44-2.53z"/>
</svg>
